<svg width="71" height="63" viewBox="0 0 71 63" fill="none" xmlns="http://www.w3.org/2000/svg">
<path d="M15.375 50.875C15.9273 50.875 16.375 50.4273 16.375 49.875C16.375 49.3227 15.9273 48.875 15.375 48.875V50.875ZM55.625 48.875C55.0727 48.875 54.625 49.3227 54.625 49.875C54.625 50.4273 55.0727 50.875 55.625 50.875V48.875ZM58.4816 21.4088L58.284 22.3891L58.4816 21.4088ZM12.5184 21.4088L12.716 22.3891H12.716L12.5184 21.4088ZM15.5776 18.2585L16.5676 18.3997L15.5776 18.2585ZM55.4224 18.2585L54.4324 18.3997V18.3997L55.4224 18.2585ZM34.5 61.375C34.5 61.9273 34.9477 62.375 35.5 62.375C36.0523 62.375 36.5 61.9273 36.5 61.375H34.5ZM35.5 38.375L36.2071 37.6679C35.8166 37.2774 35.1834 37.2774 34.7929 37.6679L35.5 38.375ZM43.4179 47.7071C43.8084 48.0976 44.4416 48.0976 44.8321 47.7071C45.2226 47.3166 45.2226 46.6834 44.8321 46.2929L43.4179 47.7071ZM26.1679 46.2929C25.7774 46.6834 25.7774 47.3166 26.1679 47.7071C26.5584 48.0976 27.1916 48.0976 27.5821 47.7071L26.1679 46.2929ZM15.375 48.875C7.98819 48.875 2 42.8868 2 35.5H0C0 43.9914 6.88362 50.875 15.375 50.875V48.875ZM69 35.5C69 42.8868 63.0118 48.875 55.625 48.875V50.875C64.1164 50.875 71 43.9914 71 35.5H69ZM58.284 22.3891C64.3971 23.6217 69 29.0244 69 35.5H71C71 28.0536 65.7074 21.8456 58.6793 20.4286L58.284 22.3891ZM12.3207 20.4286C5.2926 21.8456 0 28.0536 0 35.5H2C2 29.0244 6.60294 23.6217 12.716 22.3891L12.3207 20.4286ZM16.5676 18.3997C17.8897 9.12846 25.8632 2 35.5 2V0C24.8537 0 16.0482 7.8746 14.5876 18.1174L16.5676 18.3997ZM35.5 2C45.1368 2 53.1103 9.12846 54.4324 18.3997L56.4124 18.1174C54.9518 7.8746 46.1464 0 35.5 0V2ZM12.716 22.3891C14.6554 21.9981 16.2791 20.4225 16.5676 18.3997L14.5876 18.1174C14.4277 19.2384 13.4943 20.1919 12.3207 20.4286L12.716 22.3891ZM58.6793 20.4286C57.5057 20.1919 56.5723 19.2384 56.4124 18.1174L54.4324 18.3997C54.7209 20.4225 56.3446 21.9981 58.284 22.3891L58.6793 20.4286ZM36.5 61.375V38.375H34.5V61.375H36.5ZM34.7929 39.0821L43.4179 47.7071L44.8321 46.2929L36.2071 37.6679L34.7929 39.0821ZM34.7929 37.6679L26.1679 46.2929L27.5821 47.7071L36.2071 39.0821L34.7929 37.6679Z" fill="black"/>
</svg>
