<svg width="22" height="26" viewBox="0 0 22 26" fill="none" xmlns="http://www.w3.org/2000/svg">
<path d="M21 11.3244C21 16.1618 13.8029 22.8472 11.6201 24.7635C11.261 25.0788 10.739 25.0788 10.3799 24.7635C8.1971 22.8472 1 16.1618 1 11.3244C1 5.62241 5.47715 1 11 1C16.5228 1 21 5.62241 21 11.3244Z" stroke="black" stroke-width="1.5"/>
<path d="M14.3333 9.67723C14.3333 11.5941 12.8409 13.1481 11 13.1481C9.15905 13.1481 7.66667 11.5941 7.66667 9.67723C7.66667 7.76031 9.15905 6.20634 11 6.20634C12.8409 6.20634 14.3333 7.76031 14.3333 9.67723Z" stroke="black" stroke-width="1.5"/>
</svg>
