<svg width="26" height="21" viewBox="0 0 26 21" fill="none" xmlns="http://www.w3.org/2000/svg">
<path d="M1.78737 9.04036C8.76674 6.07684 13.4207 4.123 15.7493 3.17908C22.398 0.483881 23.7795 0.015641 24.68 0.000161001C24.8781 -0.003199 25.3209 0.044681 25.6077 0.271481C25.85 0.463001 25.9166 0.721721 25.9485 0.9034C25.9803 1.08496 26.02 1.49872 25.9884 1.82188C25.6282 5.51152 24.0692 14.4651 23.2761 18.5974C22.9404 20.3459 22.2797 20.9322 21.6399 20.9896C20.2497 21.1143 19.1939 20.0942 17.8473 19.2339C15.7402 17.8877 14.5498 17.0496 12.5045 15.736C10.1407 14.2179 11.673 13.3835 13.0201 12.02C13.3727 11.6631 19.4984 6.23272 19.6169 5.74C19.6318 5.67844 19.6455 5.44876 19.5056 5.32756C19.3655 5.20624 19.1589 5.24776 19.0098 5.28076C18.7985 5.32744 15.4324 7.49584 8.91134 11.786C7.95589 12.4254 7.09045 12.737 6.31501 12.7206C5.46025 12.7026 3.81589 12.2496 2.59347 11.8624C1.09416 11.3873 -0.0974654 11.1363 0.0062988 10.3295C0.0603469 9.9094 0.654036 9.47968 1.78737 9.04036Z" fill="white"/>
</svg>
