<svg width="22" height="22" viewBox="0 0 22 22" fill="none" xmlns="http://www.w3.org/2000/svg">
<path d="M18.3333 0H3.66667C1.58889 0 0 1.58889 0 3.66667V18.3333C0 20.4111 1.58889 22 3.66667 22H18.3333C20.4111 22 22 20.4111 22 18.3333V3.66667C22 1.58889 20.4111 0 18.3333 0ZM11 7.33333C13.0778 7.33333 14.6667 8.92222 14.6667 11C14.6667 13.0778 13.0778 14.6667 11 14.6667C8.92222 14.6667 7.33333 13.0778 7.33333 11C7.33333 8.92222 8.92222 7.33333 11 7.33333ZM15.6444 4.88889C15.6444 4.03333 16.3778 3.42222 17.1111 3.42222C17.8444 3.42222 18.5778 4.15556 18.5778 4.88889C18.5778 5.62222 17.9667 6.35556 17.1111 6.35556C16.2556 6.35556 15.6444 5.74444 15.6444 4.88889ZM18.3333 19.5556H3.66667C2.93333 19.5556 2.44444 19.0667 2.44444 18.3333V11H4.88889C4.88889 14.4222 7.57778 17.1111 11 17.1111C14.4222 17.1111 17.1111 14.4222 17.1111 11H19.5556V18.3333C19.5556 19.0667 19.0667 19.5556 18.3333 19.5556Z" fill="white"/>
</svg>
